<svg xmlns="http://www.w3.org/2000/svg" viewBox="0 0 50 50"><defs><style>.cls-1{fill:#fff;}</style></defs><title>Icon</title><g id="Crew"><path class="cls-1" d="M44.67,18.6C42.54,9.21,34.54,2.22,25,2.15S7.46,9.21,5.33,18.6H44.67Z"/><path class="cls-1" d="M46.83,27.81l-.16-1.47-.42-3.9L46,20.33H4l-.23,2.11-.42,3.9-.16,1.47c0,.14,0,.28,0,.42s.3.5.44.72l.06.09a2.28,2.28,0,0,0,1.9,1.39A2.28,2.28,0,0,0,7.43,29a4.69,4.69,0,0,1,.38-.53.8.8,0,0,1,.2-.19,1,1,0,0,1,1,0l.11.08c1.12,7.88,5.06,14.32,10.25,17.06a2,2,0,0,0,1.24,1.84,13.11,13.11,0,0,0,4.37.59,13.11,13.11,0,0,0,4.37-.59,2,2,0,0,0,1.24-1.84c5.19-2.74,9.13-9.18,10.25-17.06l.11-.08a1,1,0,0,1,1,0,.8.8,0,0,1,.2.19,4.69,4.69,0,0,1,.38.53,2,2,0,0,0,3.81,0l.06-.09c.14-.22.44-.46.44-.72S46.84,28,46.83,27.81ZM29.62,43.69a2,2,0,0,0-1.77-.13,13.84,13.84,0,0,1-5.69,0,2,2,0,0,0-1.77.13c-4.67-2.4-8.25-8.34-9.27-15.66H38.89C37.87,35.35,34.29,41.28,29.62,43.69Z"/></g></svg>