<svg xmlns="http://www.w3.org/2000/svg" viewBox="0 0 50 50"><defs><style>.cls-1{fill:none;stroke:#fff;stroke-miterlimit:10;stroke-width:4px;}.cls-2{fill:#fff;}</style></defs><title>Icon</title><g id="Engine"><circle class="cls-1" cx="20" cy="20" r="7.22" transform="translate(-6.07 30.97) rotate(-67.81)"/><path class="cls-2" d="M24.22,2l5.35,2.18L28.08,9.41A13.23,13.23,0,0,1,30.5,11.8l5.2-1.54,2.24,5.32-4.74,2.64a13.23,13.23,0,0,1,0,3.4L38,24.22l-2.18,5.35-5.22-1.48A13.24,13.24,0,0,1,28.2,30.5l1.54,5.2-5.32,2.24-2.64-4.74a13.08,13.08,0,0,1-1.75.12,13.42,13.42,0,0,1-1.65-.1L15.78,38l-5.35-2.18,1.48-5.22A13.24,13.24,0,0,1,9.5,28.2l-5.2,1.54L2.05,24.41l4.74-2.64a13.24,13.24,0,0,1,0-3.4L2,15.78l2.18-5.35,5.22,1.48A13.23,13.23,0,0,1,11.8,9.5l-1.54-5.2,5.32-2.24,2.64,4.74A13.08,13.08,0,0,1,20,6.68a13.42,13.42,0,0,1,1.65.1L24.22,2M23.55.11,22.9,1.29,20.78,5.2l-.8,0-.92,0L16.9,1.32,16.24.15,15,.67,9.68,2.91l-1.24.52.38,1.29L10.08,9A14.76,14.76,0,0,0,8.88,10.2L4.6,9,3.31,8.62,2.8,9.87.62,15.21.11,16.45l1.18.64L5.2,19.22a14.76,14.76,0,0,0,0,1.72L1.32,23.1l-1.17.65L.67,25l2.24,5.32.52,1.24,1.29-.38L9,29.92a14.76,14.76,0,0,0,1.22,1.21L9,35.4l-.37,1.29,1.24.51,5.35,2.18,1.24.51.64-1.18,2.12-3.91.8,0,.92,0,2.16,3.88.65,1.17L25,39.33l5.32-2.24,1.24-.52-.38-1.29L29.92,31a14.77,14.77,0,0,0,1.21-1.22L35.4,31l1.29.37.51-1.24,2.18-5.35.51-1.24-1.18-.64L34.8,20.78a14.75,14.75,0,0,0,0-1.72l3.88-2.16,1.17-.65L39.33,15,37.09,9.68l-.52-1.24-1.29.38L31,10.08A14.76,14.76,0,0,0,29.8,8.88L31,4.6l.37-1.29L30.13,2.8,24.79.62,23.55.11Z"/><path class="cls-2" d="M47.25,40a5.93,5.93,0,0,0-.57-1.41l1.53-1.89L46.4,34.83l-1.91,1.5a5.93,5.93,0,0,0-1.4-.6l-.25-2.42-2.58,0L40,35.71a5.92,5.92,0,0,0-1.41.57l-1.89-1.53-1.84,1.81,1.5,1.91a5.92,5.92,0,0,0-.6,1.4l-2.42.25,0,2.58,2.41.29a5.92,5.92,0,0,0,.57,1.41l-1.53,1.89,1.81,1.84,1.91-1.5a5.93,5.93,0,0,0,1.4.6l.25,2.42,2.58,0L43,47.25a5.92,5.92,0,0,0,1.41-.57l1.89,1.53,1.84-1.81-1.5-1.91a5.93,5.93,0,0,0,.59-1.4l2.42-.25,0-2.58Zm-3.76,3.55a2.86,2.86,0,1,1,0-4A2.86,2.86,0,0,1,43.49,43.52Z"/></g></svg>