<svg xmlns="http://www.w3.org/2000/svg" viewBox="0 0 50 50"><defs><style>.cls-1{fill:#fff;}</style></defs><title>Icon</title><g id="Specialism"><g id="star-icon"><path class="cls-1" d="M25,6.83l4.49,13,.35,1H44.63l-11,8.56-.85.66.35,1,4.48,13-11.8-7.78L25,35.78l-.83.54L12.38,44.1l4.48-13,.35-1-.85-.66-11-8.56H20.16l.35-1L25,6.83m0-4.6L19.09,19.38H1L15.43,30.62,9.52,47.77,25,37.57l15.48,10.2L34.57,30.62,49,19.38H30.91L25,2.23Z"/></g><polygon id="star-icon-2" data-name="star-icon" class="cls-1" points="25 19.84 26.65 24.93 32 24.93 27.67 28.07 29.33 33.16 25 30.01 20.67 33.16 22.33 28.07 18 24.93 23.35 24.93 25 19.84"/></g></svg>